<?xml version="1.0" encoding="UTF-8"?>
<svg xmlns="http://www.w3.org/2000/svg" xmlns:xlink="http://www.w3.org/1999/xlink" width="600px" height="600px" viewBox="0 0 600 600" version="1.1">
<g id="surface1">
<path style=" stroke:none;fill-rule:nonzero;fill:rgb(36.078431%,61.960784%,19.215686%);fill-opacity:1;" d="M 301.84375 244.296875 C 282.636719 208.566406 232.339844 198.261719 189.5 221.289062 C 146.664062 244.308594 133.335938 289.460938 152.539062 325.195312 L 162.488281 314.535156 C 177.585938 298.507812 184.367188 295.34375 202.894531 283.320312 C 202.894531 283.320312 253.679688 245.546875 301.84375 244.296875 Z M 301.84375 244.296875 "/>
<path style=" stroke:none;fill-rule:nonzero;fill:rgb(69.411765%,80%,20%);fill-opacity:1;" d="M 310.707031 235.40625 C 291.210938 228.066406 269.457031 234.066406 253.011719 249.125 C 244.402344 257.015625 237.242188 267.390625 232.632812 279.632812 C 219.21875 315.242188 232.429688 353.183594 262.132812 364.375 C 263.914062 317.78125 281.304688 271.597656 310.707031 235.40625 Z M 310.707031 235.40625 "/>
<path style=" stroke:none;fill-rule:nonzero;fill:rgb(36.078431%,61.960784%,19.215686%);fill-opacity:1;" d="M 471.746094 166.316406 C 457.023438 128.515625 408.351562 112.175781 363.03125 129.824219 C 334.320312 141.003906 313.84375 163.148438 306.4375 187.484375 C 302.148438 201.5625 302.234375 216.371094 307.632812 230.222656 C 307.632812 230.222656 379.503906 159.742188 471.746094 166.316406 Z M 471.746094 166.316406 "/>
<path style=" stroke:none;fill-rule:nonzero;fill:rgb(69.411765%,80%,20%);fill-opacity:1;" d="M 514.191406 290.601562 C 526.683594 243.148438 490.695312 192.542969 433.808594 177.566406 C 424.996094 175.246094 416.195312 173.914062 407.574219 173.503906 C 360.542969 171.253906 318.746094 196.265625 308.1875 236.363281 C 380.117188 231.707031 453.875 251.128906 514.191406 290.601562 Z M 514.191406 290.601562 "/>
<path style=" stroke:none;fill-rule:nonzero;fill:rgb(36.078431%,61.960784%,19.215686%);fill-opacity:1;" d="M 102.324219 197.863281 C 102.324219 197.863281 206.808594 189.960938 296.882812 219.722656 L 303.382812 223.410156 C 303.382812 223.410156 322.058594 166.332031 275.863281 142.3125 C 237.121094 122.164062 139.246094 104.667969 102.324219 197.863281 Z M 102.324219 197.863281 "/>
<path style="fill:none;stroke-width:2;stroke-linecap:round;stroke-linejoin:round;stroke:rgb(0%,0%,0%);stroke-opacity:1;stroke-miterlimit:4;" d="M 39.976878 32.44219 C 42.404534 39.30844 44.254222 49.272191 42.917815 62.764223 " transform="matrix(8.333333,0,0,8.333333,0,0)"/>
<path style="fill:none;stroke-width:2;stroke-linecap:round;stroke-linejoin:round;stroke:rgb(0%,0%,0%);stroke-opacity:1;stroke-miterlimit:4;" d="M 36.221252 28.315783 C 33.916408 24.027658 27.880783 22.791564 22.740001 25.554377 C 17.599689 28.317189 15.30047 34.033127 17.605314 38.320784 C 19.416564 36.397502 21.468751 34.69594 23.691564 33.254065 " transform="matrix(8.333333,0,0,8.333333,0,0)"/>
<path style="fill:none;stroke-width:2;stroke-linecap:round;stroke-linejoin:round;stroke:rgb(0%,0%,0%);stroke-opacity:1;stroke-miterlimit:4;" d="M 56.430472 19.031251 C 54.366097 14.622657 48.407816 13.055626 43.123128 15.531095 C 39.774378 17.099532 37.499534 19.914376 36.80719 22.887658 C 36.406877 24.607033 36.535315 26.380314 37.291877 27.995627 " transform="matrix(8.333333,0,0,8.333333,0,0)"/>
<path style="fill:none;stroke-width:2;stroke-linecap:round;stroke-linejoin:round;stroke:rgb(0%,0%,0%);stroke-opacity:1;stroke-miterlimit:4;" d="M 37.284846 28.248752 C 34.945315 27.367971 32.334846 28.087971 30.361408 29.895002 C 29.328283 30.841877 28.469064 32.086877 27.915939 33.55594 C 26.306252 37.829065 27.891564 42.382034 31.45594 43.725003 C 31.66969 38.133752 33.756565 32.591721 37.284846 28.248752 Z M 37.284846 28.248752 " transform="matrix(8.333333,0,0,8.333333,0,0)"/>
<path style="fill:none;stroke-width:2;stroke-linecap:round;stroke-linejoin:round;stroke:rgb(0%,0%,0%);stroke-opacity:1;stroke-miterlimit:4;" d="M 61.702973 34.87219 C 63.202035 29.177814 58.883441 23.105158 52.057035 21.30797 C 50.999535 21.029533 49.943441 20.869689 48.908909 20.82047 C 43.265159 20.55047 38.249534 23.551877 36.982502 28.363596 C 45.614065 27.804846 54.465003 30.135471 61.702973 34.87219 Z M 61.702973 34.87219 " transform="matrix(8.333333,0,0,8.333333,0,0)"/>
<path style="fill:none;stroke-width:2;stroke-linecap:round;stroke-linejoin:round;stroke:rgb(0%,0%,0%);stroke-opacity:1;stroke-miterlimit:4;" d="M 34.186877 19.010626 C 34.099221 18.925782 34.009221 18.841407 33.918283 18.757501 C 32.14219 17.133751 29.757189 15.811407 27.036564 15.13922 C 20.183439 13.446563 13.531876 17.082657 12.278907 22.835626 C 14.570626 22.588126 16.886251 22.545001 19.191564 22.698751 " transform="matrix(8.333333,0,0,8.333333,0,0)"/>
<path style="fill:none;stroke-width:2;stroke-linecap:round;stroke-linejoin:round;stroke:rgb(0%,0%,0%);stroke-opacity:1;stroke-miterlimit:4;" d="M 56.430472 19.031251 L 55.000316 18.906095 " transform="matrix(8.333333,0,0,8.333333,0,0)"/>
</g>
</svg>
